<?xml version="1.0" encoding="utf-8"?>
<!-- Generator: Adobe Illustrator 19.0.0, SVG Export Plug-In . SVG Version: 6.00 Build 0)  -->
<svg version="1.1" id="Layer_1" xmlns="http://www.w3.org/2000/svg" xmlns:xlink="http://www.w3.org/1999/xlink" x="0px" y="0px"
	 viewBox="0 0 1928.3 364.4" style="enable-background:new 0 0 1928.3 364.4;" xml:space="preserve">
<style type="text/css">
	.st0{fill:none;}
	.st1{fill:#FFFFFF;}
	.st2{font-family:'AvenirNext-Bold';}
	.st3{font-size:87px;}
	.st4{fill:#E74C3C;}
	.st5{fill:#ED7C23;}
	.st6{fill:#1D1D1B;}
</style>
<g id="XMLID_2_">
	<rect id="XMLID_4_" x="479" y="152.4" class="st0" width="458.5" height="81.4"/>
	<text id="XMLID_3_" transform="matrix(1 0 0 1 479.0072 218.2135)" class="st1 st2 st3">Made with </text>
	<g id="XMLID_5_" transform="translate(0,-952.36218)">
		<path id="XMLID_6_" class="st4" d="M991.5,1092c-14.7,14.7-14.7,38.3,0,53l65.2,65.1c21.8-21.7,43.5-43.4,65.3-65
			c14.7-14.7,14.7-38.3,0-53c-14.7-14.7-38.5-14.7-53.2,0l-12,12l-12.1-12C1029.9,1077.3,1006.2,1077.3,991.5,1092z"/>
	</g>
	<rect id="XMLID_16_" x="1177.9" y="152.4" class="st0" width="90.2" height="81.4"/>
	<text id="XMLID_7_" transform="matrix(1 0 0 1 1177.9471 218.2135)" class="st1 st2 st3">at</text>
	<g id="XMLID_8_">
		<path id="XMLID_63_" class="st5" d="M1351.7,236.7c8.9,11.3,19.4,21.5,31.1,30.3c11.6-8.7,22.1-18.8,31.2-30.2l-31.2-30.3
			L1351.7,236.7L1351.7,236.7z"/>
		<path id="XMLID_62_" class="st5" d="M1337.2,215l45.6-43.8l45.7,43.9c7.6-13.5,13.4-28.3,16.9-44c0.2-0.8,0.3-1.5,0.5-2.2h-126.1
			C1323.2,185.1,1329.1,200.7,1337.2,215"/>
		<path id="XMLID_61_" class="st5" d="M1337.1,215c4.3,7.6,9.1,14.8,14.5,21.7l31.1-30.2l31.2,30.3c5.4-6.8,10.2-14,14.5-21.7
			l-45.7-43.9L1337.1,215L1337.1,215z"/>
		<path id="XMLID_60_" class="st6" d="M1413.8,234.7l-30-29.2l-1-1l-1,1l-29.9,29.1c-4.8-6.2-9.1-12.6-12.9-19.3l43.8-42.1
			l43.9,42.2C1422.8,222.1,1418.5,228.6,1413.8,234.7"/>
		<path id="XMLID_110_" class="st6" d="M1382.8,175.2l-42,40.4c3.4,5.8,7.1,11.5,11.2,16.9l28.8-28l2-1.9l2,1.9l28.9,28.1
			c4.1-5.4,7.8-11,11.2-16.8L1382.8,175.2L1382.8,175.2z M1382.8,171.2l45.7,43.9c-4.3,7.6-9.1,14.9-14.5,21.6l-31.2-30.3
			l-31.1,30.2c-5.4-6.9-10.3-14.1-14.5-21.7L1382.8,171.2"/>
		<path id="XMLID_57_" class="st6" d="M1448.7,122.2c-5.4,1.6-11,2.5-17,2.5c-20.9,0-39.1-11-48.9-27.3
			c-9.8,16.3-28.1,27.3-48.9,27.3c-5.9,0-11.6-0.9-16.9-2.5c-1.4,15.9-0.4,31.6,2.8,46.7h126.1
			C1449.1,153.1,1450,137.4,1448.7,122.2"/>
		<path id="XMLID_99_" class="st6" d="M1409.9,161.8c-1.4,0.2-5.9,0.8-10,0.8c-6,0-13.3-0.9-13.4-0.9l-0.6-0.1v2
			c-0.6,0.2-1.8,0.6-3.2,0.6c-1.4,0-2.6-0.4-3.1-0.6v-2l-0.6,0.1c-0.1,0-7.4,0.9-13.4,0.9c-4.2,0-8.6-0.6-10-0.8v-28.9
			c0.5-0.1,2.1-0.4,2.9-0.6v26.2c0.3,0.6,1.5,2,6.9,2l6.9-0.9l5.3-0.8c3.5,0,4.6,1.9,4.7,2l0.2-0.1h0.8l0.2,0.1c0-0.1,1.1-2,4.6-2
			l5.3,0.8l7,0.9c5.5,0,6.9-1.5,7.1-1.6l0.1-26.7c0.7,0.2,2.1,0.6,2.5,0.7V161.8L1409.9,161.8z M1359.5,129.4
			c0.9,0.5,2.6,0.9,5.8,0.9l7-0.9l5.3-0.8c3.5,0,4.6,1.9,4.6,2v28.5c-0.9-0.7-2.3-1.5-4.7-1.5l-5.5,0.8l-6.7,0.9
			c-4.9,0-5.9-1.2-5.9-1.2C1359.4,158.1,1359.5,131.3,1359.5,129.4 M1383.3,130.6c0-0.1,1.1-2,4.6-2l5.3,0.7l7,0.9
			c3.4,0,5.1-0.5,6.1-1v29.1c-0.1-0.1-1.4,0.9-6.1,0.9l-6.7-0.9l-5.5-0.8c-2.4,0-3.8,0.8-4.6,1.5V130.6L1383.3,130.6z M1407.4,131
			l0-4.1l-1,1c0,0-1.2,1.2-6.2,1.2l-6.7-0.9l-5.5-0.8c-3,0-4.5,1.2-5.2,2c-0.7-0.7-2.2-2-5.2-2l-5.5,0.8l-6.7,0.9
			c-4.9,0-5.9-1.2-5.9-1.2l-1-1.2l0,1.6v2.8l-4,0.8v30.8l0.5,0.1c0.1,0,5.6,0.9,10.7,0.9c5,0,11-0.7,12.9-0.9v1.4l0.3,0.2
			c0.1,0,1.7,0.8,3.9,0.8c2.2,0,4-0.8,4.1-0.8l0.3-0.2v-1.4c1.9,0.2,7.8,0.9,12.9,0.9c5.1,0,10.6-0.9,10.7-0.9l0.5-0.1V132
			L1407.4,131L1407.4,131z"/>
	</g>
</g>
</svg>
