<?xml version="1.0" encoding="UTF-8"?>
<svg width="789px" height="391px" viewBox="0 0 789 391" version="1.1" xmlns="http://www.w3.org/2000/svg" xmlns:xlink="http://www.w3.org/1999/xlink">
    <!-- Generator: Sketch 53.2 (72643) - https://sketchapp.com -->
    <title>svttLogoWhiteTM</title>
    <desc>Created with Sketch.</desc>
    <g id="svttLogoWhiteTM" stroke="none" stroke-width="1" fill="none" fill-rule="evenodd">
        <g id="svttLogoWhite" transform="translate(0.000000, 23.000000)" fill="#FFFFFF" fill-rule="nonzero">
            <g id="XMLID_245_">
                <path d="M0,367 L0,367 L0,348.3 L6,348.3 C249.3,347.3 407,281 496.7,225 C594,164.3 633.4,103.7 633.7,103.3 L645.4,85 L650.4,106.3 C666.1,173 719.7,342 781.4,346.6 L787.1,346.6 L787.8,364.9 C785.5,365.2 783.1,365.2 780.8,364.9 L6,366.7 C4,367 2,367 0,367 L0,367 Z M637,129.4 C618.3,152.4 577.3,196.4 506,240.7 C443.7,279.4 349.3,323.4 217.3,347.7 L740.3,346.7 C717.3,326.7 694.6,290.4 673.3,238 C656.4,196 643.7,153 637,129.4 Z" id="XMLID_256_"></path>
                <g id="XMLID_247_" transform="translate(25.000000, 0.000000)">
                    <path d="M16,131.4 C16,131.4 0.7,108.2 0.7,88.7 L0.7,66 C0.7,29.3 30,0 66.7,0 C103.4,0 132.7,29.3 132.7,66 L132.7,108.7 L106.4,111.7 L106.4,66 C106.4,44.3 88.7,26.3 66.7,26.3 C44.7,26.3 27,44 27,66 L27,88.7 C26.9,97.7 36,114 36,114 L117,210 C117,210 132.7,228.7 132.7,253.7 L132.7,286.7 C132.7,323.4 103.4,352.7 66.7,352.7 C30,352.7 0.7,323.4 0.7,286.7 L0.7,236.4 L27,233.4 L27,286.7 C27,308.4 44.7,326.4 66.7,326.4 C88.7,326.4 106.4,308.7 106.4,286.7 L106.4,253.7 C106.4,239 96.7,227.4 96.7,227.4 L16,131.4 Z" id="XMLID_254_"></path>
                    <polygon id="XMLID_252_" points="272.7 5 299 5 246.7 347.4 202 347.4 150 5.1 176.3 5.1 224 318.1 225 318.1"></polygon>
                    <polygon id="XMLID_250_" points="437 31.7 389.7 31.7 389.7 347.7 362.7 347.7 362.7 31.7 315.4 31.7 315.4 5.4 437.1 5.4 437.1 31.7"></polygon>
                    <polygon id="XMLID_248_" points="578 31.7 530.7 31.7 530.7 347.7 503.7 347.7 503.7 31.7 456 31.7 456 5.4 577.7 5.4 577.7 31.7"></polygon>
                </g>
                <rect id="XMLID_246_" x="629" y="120.4" width="18.7" height="238.3"></rect>
            </g>
            <path d="M0.3,367.3 L0.3,367.3 L0.3,348.6 L6.3,348.6 C249.6,347.6 407.3,281.3 497,225.3 C594.3,164.6 633.7,104 634,103.6 L645.7,85.3 L650.7,106.6 C666.4,173.3 720,342.3 781.7,346.9 L787.4,346.9 L788.1,365.2 C785.8,365.5 783.4,365.5 781.1,365.2 L6.3,367 C4.3,367.3 2.3,367.3 0.3,367.3 L0.3,367.3 Z M637.3,129.7 C618.6,152.7 577.6,196.7 506.3,241 C444,279.7 349.6,323.7 217.6,348 L740.6,347 C717.6,327 694.9,290.7 673.6,238.3 C656.7,196.3 644,153.3 637.3,129.7 Z" id="XMLID_20_"></path>
            <g id="XMLID_15_" transform="translate(26.000000, 0.000000)">
                <path d="M15.3,131.7 C15.3,131.7 -3.55271368e-15,108.5 -3.55271368e-15,89 L-3.55271368e-15,66.3 C-3.55271368e-15,29.6 29.3,0.3 66,0.3 C102.7,0.3 132,29.6 132,66.3 L132,109 L105.7,112 L105.7,66.3 C105.7,44.6 88,26.6 66,26.6 C44,26.6 26.3,44.3 26.3,66.3 L26.3,89 C26.2,98 35.3,114.3 35.3,114.3 L116.3,210.3 C116.3,210.3 132,229 132,254 L132,287 C132,323.7 102.7,353 66,353 C29.3,353 0,323.7 0,287 L0,236.7 L26.3,233.7 L26.3,287 C26.3,308.7 44,326.7 66,326.7 C88,326.7 105.7,309 105.7,287 L105.7,254 C105.7,239.3 96,227.7 96,227.7 L15.3,131.7 Z" id="XMLID_19_"></path>
                <polygon id="XMLID_18_" points="272 5.3 298.3 5.3 246 347.7 201.3 347.7 149.3 5.4 175.6 5.4 223.3 318.4 224.3 318.4"></polygon>
                <polygon id="XMLID_17_" points="436.3 32 389 32 389 348 362 348 362 32 314.7 32 314.7 5.7 436.4 5.7 436.4 32"></polygon>
                <polygon id="XMLID_16_" points="577.3 32 530 32 530 348 503 348 503 32 455.3 32 455.3 5.7 577 5.7 577 32"></polygon>
            </g>
            <rect id="XMLID_14_" x="629.3" y="120.7" width="18.7" height="238.3"></rect>
        </g>
        <path d="M646.556641,43 L646.556641,5.11914062 L632.40625,5.11914062 L632.40625,0.05078125 L666.449219,0.05078125 L666.449219,5.11914062 L652.240234,5.11914062 L652.240234,43 L646.556641,43 Z M672.103516,43 L672.103516,0.05078125 L680.658203,0.05078125 L690.824219,30.4609375 C691.761723,33.2929829 692.44531,35.4121023 692.875,36.8183594 C693.363284,35.2558516 694.124995,32.9609526 695.160156,29.9335938 L705.443359,0.05078125 L713.089844,0.05078125 L713.089844,43 L707.611328,43 L707.611328,7.05273438 L695.130859,43 L690.003906,43 L677.582031,6.4375 L677.582031,43 L672.103516,43 Z" id="TM" fill="#FFFFFF" fill-rule="nonzero"></path>
    </g>
</svg>