<?xml version="1.0" encoding="utf-8"?>
<!-- Generator: Adobe Illustrator 19.0.0, SVG Export Plug-In . SVG Version: 6.00 Build 0)  -->
<svg version="1.1" id="Layer_1" xmlns="http://www.w3.org/2000/svg" xmlns:xlink="http://www.w3.org/1999/xlink" x="0px" y="0px"
	 viewBox="0 0 787.8 367" style="enable-background:new 0 0 787.8 367;" xml:space="preserve">
<style type="text/css">
	.st0{fill:#FFFFFF;}
</style>
<g id="XMLID_245_">
	<path id="XMLID_256_" class="st0" d="M0,367L0,367v-18.7h6c243.3-1,401-67.3,490.7-123.3c97.3-60.7,136.7-121.3,137-121.7L645.4,85
		l5,21.3c15.7,66.7,69.3,235.7,131,240.3h5.7l0.7,18.3c-2.3,0.3-4.7,0.3-7,0L6,366.7C4,367,2,367,0,367L0,367z M637,129.4
		c-18.7,23-59.7,67-131,111.3c-62.3,38.7-156.7,82.7-288.7,107l523-1c-23-20-45.7-56.3-67-108.7C656.4,196,643.7,153,637,129.4z"/>
	<g id="XMLID_247_">
		<path id="XMLID_254_" class="st0" d="M41,131.4c0,0-15.3-23.2-15.3-42.7V66c0-36.7,29.3-66,66-66s66,29.3,66,66v42.7l-26.3,3V66
			c0-21.7-17.7-39.7-39.7-39.7S52,44,52,66v22.7c-0.1,9,9,25.3,9,25.3l81,96c0,0,15.7,18.7,15.7,43.7v33c0,36.7-29.3,66-66,66
			s-66-29.3-66-66v-50.3l26.3-3v53.3c0,21.7,17.7,39.7,39.7,39.7s39.7-17.7,39.7-39.7v-33c0-14.7-9.7-26.3-9.7-26.3L41,131.4z"/>
		<path id="XMLID_252_" class="st0" d="M297.7,5H324l-52.3,342.4H227L175,5.1h26.3l47.7,313h1L297.7,5z"/>
		<path id="XMLID_250_" class="st0" d="M462,31.7h-47.3v316h-27v-316h-47.3V5.4h121.7v26.3H462z"/>
		<path id="XMLID_248_" class="st0" d="M603,31.7h-47.3v316h-27v-316H481V5.4h121.7v26.3H603z"/>
	</g>
	<rect id="XMLID_246_" x="629" y="120.4" class="st0" width="18.7" height="238.3"/>
</g>
<path id="XMLID_20_" class="st0" d="M0.3,367.3L0.3,367.3v-18.7h6c243.3-1,401-67.3,490.7-123.3c97.3-60.7,136.7-121.3,137-121.7
	l11.7-18.3l5,21.3c15.7,66.7,69.3,235.7,131,240.3h5.7l0.7,18.3c-2.3,0.3-4.7,0.3-7,0L6.3,367C4.3,367.3,2.3,367.3,0.3,367.3
	L0.3,367.3z M637.3,129.7c-18.7,23-59.7,67-131,111.3c-62.3,38.7-156.7,82.7-288.7,107l523-1c-23-20-45.7-56.3-67-108.7
	C656.7,196.3,644,153.3,637.3,129.7z"/>
<g id="XMLID_15_">
	<path id="XMLID_19_" class="st0" d="M41.3,131.7c0,0-15.3-23.2-15.3-42.7V66.3c0-36.7,29.3-66,66-66s66,29.3,66,66V109l-26.3,3
		V66.3c0-21.7-17.7-39.7-39.7-39.7S52.3,44.3,52.3,66.3V89c-0.1,9,9,25.3,9,25.3l81,96c0,0,15.7,18.7,15.7,43.7v33
		c0,36.7-29.3,66-66,66s-66-29.3-66-66v-50.3l26.3-3V287c0,21.7,17.7,39.7,39.7,39.7s39.7-17.7,39.7-39.7v-33
		c0-14.7-9.7-26.3-9.7-26.3L41.3,131.7z"/>
	<path id="XMLID_18_" class="st0" d="M298,5.3h26.3L272,347.7h-44.7l-52-342.3h26.3l47.7,313h1L298,5.3z"/>
	<path id="XMLID_17_" class="st0" d="M462.3,32H415v316h-27V32h-47.3V5.7h121.7V32H462.3z"/>
	<path id="XMLID_16_" class="st0" d="M603.3,32H556v316h-27V32h-47.7V5.7H603V32H603.3z"/>
</g>
<rect id="XMLID_14_" x="629.3" y="120.7" class="st0" width="18.7" height="238.3"/>
</svg>
